<?xml version="1.0" standalone="no"?>
<!DOCTYPE svg PUBLIC "-//W3C//DTD SVG 20010904//EN"
 "http://www.w3.org/TR/2001/REC-SVG-20010904/DTD/svg10.dtd">
<svg version="1.0" xmlns="http://www.w3.org/2000/svg"
 width="96.000000pt" height="96.000000pt" viewBox="0 0 96.000000 96.000000"
 preserveAspectRatio="xMidYMid meet">

<g transform="translate(0.000000,96.000000) scale(0.100000,-0.100000)"
fill="#000000" stroke="none">
<path d="M385 948 c-159 -30 -299 -154 -356 -314 -28 -79 -30 -216 -5 -294
114 -346 537 -451 792 -196 189 189 190 484 2 669 -122 121 -269 166 -433 135z
m85 -154 c8 -17 27 -38 42 -47 15 -8 36 -33 47 -55 15 -29 30 -44 55 -52 31
-10 63 -36 66 -52 0 -4 3 -14 6 -21 3 -8 4 -47 2 -88 -3 -72 -4 -74 -30 -77
-19 -2 -31 3 -40 17 -11 19 -23 21 -104 21 -72 0 -93 -3 -98 -15 -4 -10 -20
-15 -51 -15 l-45 0 0 110 c0 102 -2 111 -24 133 -29 29 -27 75 3 96 12 7 21
22 21 32 0 12 7 19 19 19 10 0 24 7 31 16 9 10 26 14 49 12 29 -2 39 -9 51
-34z m-240 -499 c0 -8 -9 -15 -20 -15 -15 0 -20 -7 -20 -25 0 -18 5 -25 20
-25 11 0 20 -7 20 -15 0 -10 -10 -15 -30 -15 -30 0 -30 1 -30 55 0 54 0 55 30
55 20 0 30 -5 30 -15z m80 -9 c0 -16 -7 -27 -20 -31 -13 -4 -20 -15 -20 -31 0
-13 -4 -24 -10 -24 -5 0 -10 25 -10 55 0 54 0 55 30 55 25 0 30 -4 30 -24z
m40 4 c0 -11 5 -20 10 -20 6 0 10 9 10 20 0 11 5 20 10 20 6 0 10 -16 10 -35
0 -19 -4 -35 -10 -35 -5 0 -10 -9 -10 -20 0 -11 -4 -20 -10 -20 -5 0 -10 9
-10 20 0 11 -4 20 -10 20 -5 0 -10 16 -10 35 0 19 5 35 10 35 6 0 10 -9 10
-20z m120 -15 c0 -29 -4 -35 -17 -33 -12 2 -19 -4 -21 -19 -7 -45 -22 -22 -22
32 0 54 0 55 30 55 28 0 30 -3 30 -35z m90 25 c0 -5 -6 -13 -12 -17 -7 -4 -13
-23 -13 -42 0 -19 -6 -36 -12 -38 -9 -3 -13 8 -13 36 0 22 -4 43 -10 46 -21
13 -9 25 25 25 19 0 35 -4 35 -10z m68 -15 c15 -32 15 -72 2 -80 -6 -3 -14 4
-18 16 l-9 23 -6 -23 c-8 -31 -27 -17 -27 20 0 33 19 69 36 69 6 0 16 -11 22
-25z m90 -7 c-2 -24 -7 -32 -20 -30 -10 1 -18 -5 -20 -18 -6 -42 -23 -23 -25
28 l-1 52 34 0 c34 0 35 -1 32 -32z m82 22 c0 -6 -10 -15 -22 -20 l-23 -9 23
0 c12 -1 22 -6 22 -11 0 -6 -10 -15 -22 -20 l-23 -9 23 0 c13 -1 22 -7 22 -17
0 -11 -8 -14 -32 -12 -32 3 -33 4 -34 56 l-1 52 34 0 c18 0 33 -5 33 -10z
m-490 -75 c0 -14 -4 -25 -10 -25 -5 0 -10 11 -10 25 0 14 5 25 10 25 6 0 10
-11 10 -25z"/>
</g>
</svg>
